<svg width="49" height="48" viewBox="0 0 49 48" fill="none" xmlns="http://www.w3.org/2000/svg">
<circle cx="24.332" cy="24" r="24" fill="#2472FC"/>
<path opacity="0.3" d="M31 22C31.7956 22 32.5587 22.3161 33.1213 22.8787C33.6839 23.4413 34 24.2044 34 25V28C34 28.7956 33.6839 29.5587 33.1213 30.1213C32.5587 30.6839 31.7956 31 31 31V31.966C31 33.026 29.764 33.605 28.95 32.926L26.638 31H24C23.2044 31 22.4413 30.6839 21.8787 30.1213C21.3161 29.5587 21 28.7956 21 28V25C21 24.2044 21.3161 23.4413 21.8787 22.8787C22.4413 22.3161 23.2044 22 24 22H31Z" fill="#FDFDFD"/>
<path d="M28 16C28.7956 16 29.5587 16.3161 30.1213 16.8787C30.6839 17.4413 31 18.2044 31 19V20H23C21.9391 20 20.9217 20.4214 20.1716 21.1716C19.4214 21.9217 19 22.9391 19 24V28C19 29.044 19.4 29.996 20.056 30.708L19 31.5C18.176 32.118 17 31.53 17 30.5V29C16.2044 29 15.4413 28.6839 14.8787 28.1213C14.3161 27.5587 14 26.7956 14 26V19C14 18.2044 14.3161 17.4413 14.8787 16.8787C15.4413 16.3161 16.2044 16 17 16H28Z" fill="#FDFDFD"/>
</svg>
