<svg width="25" height="26" viewBox="0 0 25 26" fill="none" xmlns="http://www.w3.org/2000/svg">
<g clip-path="url(#clip0_0_2444)">
<path d="M1.01209 12.8554C1.01153 14.8876 1.54253 16.8719 2.55221 18.6209L0.915527 24.5967L7.03103 22.9932C8.7225 23.914 10.6177 24.3965 12.5435 24.3966H12.5486C18.9062 24.3966 24.0815 19.2232 24.0842 12.8644C24.0855 9.78317 22.8866 6.88573 20.7084 4.70586C18.5306 2.52617 15.6342 1.32514 12.5481 1.32373C6.18972 1.32373 1.01481 6.49686 1.01218 12.8554" fill="url(#paint0_linear_0_2444)"/>
<path d="M0.600313 12.8515C0.599656 14.9568 1.14969 17.0121 2.19537 18.8237L0.5 25.0138L6.83478 23.3528C8.58022 24.3045 10.5454 24.8062 12.5451 24.807H12.5502C19.136 24.807 24.4972 19.4475 24.5 12.8611C24.5011 9.66906 23.2591 6.66747 21.0031 4.4095C18.7468 2.15181 15.7468 0.907563 12.5502 0.90625C5.96337 0.90625 0.602938 6.265 0.600313 12.8515ZM4.37291 18.5118L4.13637 18.1363C3.14206 16.5553 2.61725 14.7283 2.618 12.8523C2.62006 7.37772 7.07544 2.92375 12.554 2.92375C15.2071 2.92488 17.7005 3.95913 19.5759 5.83563C21.4512 7.71231 22.4831 10.207 22.4824 12.8603C22.48 18.3348 18.0245 22.7894 12.5502 22.7894H12.5463C10.7638 22.7884 9.01569 22.3097 7.49113 21.4052L7.12831 21.19L3.36912 22.1756L4.37291 18.5118Z" fill="url(#paint1_linear_0_2444)"/>
<path d="M9.56334 7.85781C9.33965 7.36066 9.10425 7.35063 8.89153 7.34191C8.71734 7.33441 8.51821 7.33497 8.31928 7.33497C8.12015 7.33497 7.79662 7.40988 7.52315 7.70847C7.2494 8.00735 6.47803 8.7296 6.47803 10.1986C6.47803 11.6675 7.548 13.0873 7.69715 13.2867C7.8465 13.4857 9.76275 16.5967 12.7976 17.7935C15.3199 18.7881 15.8332 18.5903 16.3806 18.5404C16.9281 18.4908 18.1472 17.8184 18.3959 17.1212C18.6448 16.424 18.6448 15.8265 18.5702 15.7016C18.4956 15.5772 18.2964 15.5025 17.9978 15.3532C17.6992 15.204 16.2312 14.4815 15.9576 14.3819C15.6838 14.2823 15.4848 14.2326 15.2857 14.5316C15.0865 14.8301 14.5147 15.5025 14.3405 15.7016C14.1664 15.9012 13.9921 15.926 13.6936 15.7767C13.3948 15.6269 12.4332 15.312 11.2924 14.2949C10.4047 13.5034 9.8055 12.5261 9.63131 12.2271C9.45712 11.9286 9.61265 11.7668 9.76237 11.618C9.89653 11.4843 10.0611 11.2694 10.2105 11.0951C10.3594 10.9207 10.4091 10.7963 10.5086 10.5972C10.6083 10.3979 10.5584 10.2235 10.4839 10.0742C10.4091 9.92481 9.82884 8.44816 9.56334 7.85781Z" fill="white"/>
</g>
<defs>
<linearGradient id="paint0_linear_0_2444" x1="1159.35" y1="2328.62" x2="1159.35" y2="1.32373" gradientUnits="userSpaceOnUse">
<stop stop-color="#1FAF38"/>
<stop offset="1" stop-color="#60D669"/>
</linearGradient>
<linearGradient id="paint1_linear_0_2444" x1="1200.5" y1="2411.66" x2="1200.5" y2="0.90625" gradientUnits="userSpaceOnUse">
<stop stop-color="#F9F9F9"/>
<stop offset="1" stop-color="white"/>
</linearGradient>
<clipPath id="clip0_0_2444">
<rect width="24" height="24.1875" fill="white" transform="translate(0.5 0.90625)"/>
</clipPath>
</defs>
</svg>
