<svg width="49" height="48" viewBox="0 0 49 48" fill="none" xmlns="http://www.w3.org/2000/svg">
<circle cx="24.666" cy="24" r="24" fill="#2472FC"/>
<path d="M24.3327 14C22.596 13.9995 20.8891 14.4514 19.38 15.3111C17.871 16.1708 16.6119 17.4086 15.7267 18.9028C14.8414 20.397 14.3606 22.0959 14.3315 23.8324C14.3024 25.5689 14.726 27.283 15.5607 28.806L14.3767 32.7C14.3239 32.8734 14.3192 33.0579 14.3631 33.2338C14.4071 33.4097 14.498 33.5703 14.6262 33.6985C14.7544 33.8267 14.915 33.9176 15.0909 33.9616C15.2667 34.0055 15.4513 34.0008 15.6247 33.948L19.5147 32.764C20.8511 33.4983 22.3377 33.9174 23.8609 33.989C25.3841 34.0606 26.9034 33.7829 28.3028 33.1772C29.7022 32.5715 30.9446 31.6537 31.9348 30.4942C32.9251 29.3346 33.6371 27.964 34.0163 26.487C34.3956 25.0101 34.432 23.4659 34.1229 21.9727C33.8137 20.4795 33.1672 19.0768 32.2328 17.8718C31.2983 16.6668 30.1006 15.6915 28.7314 15.0204C27.3621 14.3494 25.8575 14.0003 24.3327 14Z" fill="#FDFDFD"/>
</svg>
