<svg width="25" height="24" viewBox="0 0 25 24" fill="none" xmlns="http://www.w3.org/2000/svg">
<g clip-path="url(#clip0_0_2437)">
<path d="M18.875 0H6.125C3.0184 0 0.5 2.5184 0.5 5.625V18.375C0.5 21.4816 3.0184 24 6.125 24H18.875C21.9816 24 24.5 21.4816 24.5 18.375V5.625C24.5 2.5184 21.9816 0 18.875 0Z" fill="url(#paint0_radial_0_2437)"/>
<path d="M18.875 0H6.125C3.0184 0 0.5 2.5184 0.5 5.625V18.375C0.5 21.4816 3.0184 24 6.125 24H18.875C21.9816 24 24.5 21.4816 24.5 18.375V5.625C24.5 2.5184 21.9816 0 18.875 0Z" fill="url(#paint1_radial_0_2437)"/>
<path d="M12.5008 2.625C9.95478 2.625 9.63519 2.63616 8.63525 2.68163C7.63719 2.72738 6.95591 2.88534 6.35984 3.11719C5.74316 3.35662 5.22013 3.67697 4.69906 4.19822C4.17753 4.71937 3.85719 5.24241 3.617 5.85881C3.3845 6.45506 3.22634 7.13662 3.18144 8.13422C3.13672 9.13425 3.125 9.45394 3.125 12.0001C3.125 14.5463 3.13625 14.8648 3.18163 15.8647C3.22756 16.8628 3.38553 17.5441 3.61719 18.1402C3.85681 18.7568 4.17716 19.2799 4.69841 19.8009C5.21938 20.3225 5.74241 20.6436 6.35862 20.883C6.95516 21.1148 7.63653 21.2728 8.63441 21.3186C9.63444 21.364 9.95375 21.3752 12.4997 21.3752C15.0461 21.3752 15.3646 21.364 16.3646 21.3186C17.3626 21.2728 18.0447 21.1148 18.6412 20.883C19.2576 20.6436 19.7799 20.3225 20.3007 19.8009C20.8223 19.2799 21.1425 18.7568 21.3828 18.1404C21.6133 17.5441 21.7715 16.8626 21.8184 15.8649C21.8633 14.865 21.875 14.5463 21.875 12.0001C21.875 9.45394 21.8633 9.13444 21.8184 8.13441C21.7715 7.13634 21.6133 6.45516 21.3828 5.85909C21.1425 5.24241 20.8223 4.71937 20.3007 4.19822C19.7793 3.67678 19.2578 3.35644 18.6406 3.11728C18.043 2.88534 17.3613 2.72728 16.3632 2.68163C15.3632 2.63616 15.0448 2.625 12.4979 2.625H12.5008ZM11.6598 4.31447C11.9095 4.31409 12.188 4.31447 12.5008 4.31447C15.0041 4.31447 15.3007 4.32347 16.2892 4.36838C17.2032 4.41019 17.6994 4.56291 18.0298 4.69125C18.4674 4.86112 18.7793 5.06428 19.1072 5.3925C19.4353 5.72062 19.6384 6.03309 19.8088 6.47062C19.9371 6.80062 20.09 7.29675 20.1316 8.21081C20.1765 9.19913 20.1863 9.49594 20.1863 11.9979C20.1863 14.4999 20.1765 14.7968 20.1316 15.7851C20.0898 16.6991 19.9371 17.1952 19.8088 17.5253C19.6389 17.9629 19.4353 18.2744 19.1072 18.6023C18.7791 18.9305 18.4676 19.1335 18.0298 19.3035C17.6997 19.4324 17.2032 19.5848 16.2892 19.6266C15.3009 19.6715 15.0041 19.6812 12.5008 19.6812C9.99753 19.6812 9.70081 19.6715 8.71259 19.6266C7.79853 19.5844 7.30241 19.4317 6.97166 19.3033C6.53422 19.1333 6.22166 18.9303 5.89353 18.6022C5.56541 18.274 5.36234 17.9623 5.192 17.5246C5.06366 17.1945 4.91075 16.6984 4.86913 15.7843C4.82422 14.796 4.81522 14.4992 4.81522 11.9956C4.81522 9.492 4.82422 9.19678 4.86913 8.20847C4.91094 7.29441 5.06366 6.79828 5.192 6.46781C5.36197 6.03028 5.56541 5.71781 5.89363 5.38969C6.22184 5.06156 6.53422 4.85841 6.97175 4.68816C7.30222 4.55925 7.79853 4.40691 8.71259 4.36491C9.57744 4.32581 9.91259 4.31409 11.6598 4.31212V4.31447ZM17.5052 5.87109C16.8841 5.87109 16.3802 6.37453 16.3802 6.99572C16.3802 7.61681 16.8841 8.12072 17.5052 8.12072C18.1263 8.12072 18.6302 7.61681 18.6302 6.99572C18.6302 6.37463 18.1263 5.87072 17.5052 5.87072V5.87109ZM12.5008 7.18556C9.84209 7.18556 7.68641 9.34125 7.68641 12.0001C7.68641 14.6589 9.84209 16.8136 12.5008 16.8136C15.1597 16.8136 17.3146 14.6589 17.3146 12.0001C17.3146 9.34134 15.1595 7.18556 12.5007 7.18556H12.5008ZM12.5008 8.87503C14.2267 8.87503 15.6259 10.2741 15.6259 12.0001C15.6259 13.7259 14.2267 15.1252 12.5008 15.1252C10.775 15.1252 9.37588 13.7259 9.37588 12.0001C9.37588 10.2741 10.7749 8.87503 12.5008 8.87503Z" fill="white"/>
</g>
<defs>
<radialGradient id="paint0_radial_0_2437" cx="0" cy="0" r="1" gradientUnits="userSpaceOnUse" gradientTransform="translate(6.875 25.8485) rotate(-90) scale(23.7858 22.1227)">
<stop stop-color="#FFDD55"/>
<stop offset="0.1" stop-color="#FFDD55"/>
<stop offset="0.5" stop-color="#FF543E"/>
<stop offset="1" stop-color="#C837AB"/>
</radialGradient>
<radialGradient id="paint1_radial_0_2437" cx="0" cy="0" r="1" gradientUnits="userSpaceOnUse" gradientTransform="translate(-3.52009 1.72884) rotate(78.681) scale(10.6324 43.827)">
<stop stop-color="#3771C8"/>
<stop offset="0.128" stop-color="#3771C8"/>
<stop offset="1" stop-color="#6600FF" stop-opacity="0"/>
</radialGradient>
<clipPath id="clip0_0_2437">
<rect width="24" height="24" fill="white" transform="translate(0.5)"/>
</clipPath>
</defs>
</svg>
